<svg xmlns="http://www.w3.org/2000/svg" width="200" height="53">
    <defs id="SvgjsDefs1127"></defs>
    <g id="SvgjsG1128" featurekey="root" fill="#f2f2f2"></g>
    <g id="SvgjsG1129" featurekey="text1" fill="#303030" transform="matrix(0.7693076729774475,0,0,0.7693076729774475,-0.3846538514452927,-3.662402709621558)">
        <path d="M4.96 11.58 c3.98 0 6.62 1.9 6.62 6.2 c0 4.22 -2.92 6.22 -5.64 6.22 c-1.06 0 -2.04 -0.3 -2.9 -0.3 c-0.9 0 -1.52 0.08 -2.54 0.3 l0 -0.54 c1 -0.24 1.4 -0.4 1.4 -0.92 l0 -9.34 c0 -0.62 -0.28 -1 -1.36 -1.12 l0 -0.5 c1.74 0.08 2.86 0 4.42 0 z M5.62 23.38 c2.92 0.06 3.92 -2.28 3.92 -5.58 c0 -3.14 -1.28 -5.7 -4.4 -5.64 c-0.36 0 -0.78 0 -1.36 0.04 l0 10.18 c0 0.8 0.8 0.98 1.84 1 z M26.223 22.24 c0.28 0.78 0.36 1.12 1.8 1.24 l0 0.52 c-1.56 -0.06 -3.26 -0.06 -4.84 0 l0 -0.52 c1.52 -0.12 1.38 -0.38 1.08 -1.18 l-0.92 -2.5 l-4.42 0 l-0.9 2.64 c-0.24 0.7 0.44 0.92 1.6 1.04 l0 0.52 c-1.3 -0.06 -2.92 -0.06 -4.18 0 l0 -0.52 c1.26 -0.12 1.7 -0.44 2.02 -1.36 l3.64 -10.64 l1.08 0 z M19.123 19.22 l4 0 l-2.08 -5.68 z M43.446 12.08 c-1.04 0.12 -1.42 0.24 -1.42 0.74 l0 9.92 c0 0.5 0.38 0.64 1.42 0.74 l0 0.52 c-1.54 -0.06 -3.2 -0.06 -4.76 0 l0 -0.52 c1.06 -0.1 1.44 -0.24 1.44 -0.74 l0 -4.66 l-5.22 0 l0 4.66 c0 0.5 0.38 0.64 1.44 0.74 l0 0.52 c-1.56 -0.06 -3.2 -0.06 -4.76 0 l0 -0.52 c1.06 -0.1 1.44 -0.24 1.44 -0.74 l0 -9.92 c0 -0.5 -0.38 -0.62 -1.44 -0.74 l0 -0.5 c1.56 0.06 3.2 0.06 4.76 0 l0 0.5 c-1.06 0.12 -1.44 0.24 -1.44 0.74 l0 4.68 l5.22 0 l0 -4.68 c0 -0.5 -0.38 -0.62 -1.44 -0.74 l0 -0.5 c1.56 0.06 3.22 0.06 4.76 0 l0 0.5 z M55.888999999999996 20.92 l0.58 0 c-0.34 1.1 -0.5 2.06 -0.58 3.08 c-3 -0.06 -5.7 -0.06 -8.64 0 l0 -0.58 c1.06 -0.12 1.4 -0.22 1.4 -0.72 l0 -9.88 c0 -0.5 -0.38 -0.62 -1.44 -0.74 l0 -0.5 c1.56 0.06 3.2 0.06 4.76 0 l0 0.5 c-1.06 0.12 -1.44 0.24 -1.44 0.74 l0 10.4 c0 0.1 0.08 0.16 0.18 0.16 l2.34 0 c1.18 0 1.8 -0.34 2.2 -1.18 z M72.172 24.98 l0.68 0 c0 1.76 -1.02 2.82 -2.7 2.82 c-2.24 0 -2.7 -2.22 -4.6 -2.22 c-1.22 0 -1.92 0.6 -2.12 1.04 l-1.66 0 c0.5 -1 2.62 -2.02 4.26 -2.36 c-3.32 0 -5.6 -2.84 -5.6 -6.54 c0 -3.68 2.18 -6.46 5.5 -6.46 s5.6 2.82 5.6 6.52 c0 2.54 -1.04 4.68 -2.8 5.74 c-1.7 1.02 -3.4 1.06 -4.92 2.04 c0.54 -0.24 1.34 -0.46 2.06 -0.46 c1.82 0 2.98 1.06 4.4 1.06 c1.14 0 1.88 -0.64 1.9 -1.18 z M62.472 17.16 c0 3.78 1.6 6.5 3.78 6.5 c1.64 0 3.26 -1.26 3.26 -5.3 c0 -3.8 -1.62 -6.52 -3.9 -6.52 c-1.54 0 -3.14 1.28 -3.14 5.32 z M81.13499999999999 24.18 l-4.3 -11.38 c-0.18 -0.46 -0.4 -0.6 -1.46 -0.72 l0 -0.5 c1.6 0.06 3.1 0.06 4.68 0 l0 0.5 c-1.04 0.12 -1.42 0.26 -1.24 0.72 l3.36 8.78 l3.02 -8.78 c0.18 -0.5 -0.44 -0.6 -1.48 -0.72 l0 -0.5 c1.32 0.06 2.62 0.06 3.96 0 l0 0.5 c-1.06 0.12 -1.62 0.22 -1.8 0.72 l-4 11.38 l-0.74 0 z M94.55799999999999 22.74 c0 0.5 0.38 0.64 1.44 0.74 l0 0.52 c-1.56 -0.06 -3.2 -0.06 -4.76 0 l0 -0.52 c1.06 -0.1 1.44 -0.24 1.44 -0.74 l0 -9.92 c0 -0.5 -0.38 -0.62 -1.44 -0.74 l0 -0.5 c1.56 0.06 3.2 0.06 4.76 0 l0 0.5 c-1.06 0.12 -1.44 0.24 -1.44 0.74 l0 9.92 z M106.381 21.46 c0 -1.6 -1.36 -2.3 -2.9 -3 c-1.9 -0.88 -3.5 -1.9 -3.5 -3.94 c0 -1.8 1.36 -3.26 3.68 -3.26 c1.5 0 2 0.46 2.46 0.46 c0.22 0 0.38 -0.04 0.46 -0.3 l0.52 0 l0.14 2.62 l-0.32 -0.02 c-0.22 -0.02 -0.32 -0.06 -0.42 -0.3 c-0.5 -1.06 -1.52 -1.88 -2.76 -1.88 c-1.36 0 -2.14 0.96 -2.14 2.06 c0 1.36 0.92 1.98 2.48 2.72 c1.64 0.76 4.14 1.68 4.14 4.16 c0 2.2 -2.04 3.48 -4 3.48 c-1.66 0 -2.46 -0.76 -3.04 -0.76 c-0.3 0 -0.5 0.2 -0.58 0.48 l-0.56 0 l-0.18 -2.8 l0.48 0 c0.18 0 0.26 0.08 0.36 0.3 c0.5 1.14 1.58 2.14 3.26 2.14 c1.5 0 2.42 -0.88 2.42 -2.16 z M121.224 11.38 l0.44 0 l-0.7 2.72 l-0.54 0 c0.12 -1.42 0 -1.94 -0.82 -1.94 l-1.82 0 l0 10.58 c0 0.5 0.38 0.64 1.42 0.74 l0 0.52 c-1.54 -0.06 -3.2 -0.06 -4.74 0 l0 -0.52 c1.04 -0.1 1.42 -0.24 1.42 -0.74 l0 -10.58 l-1.64 0 c-0.82 0 -1.02 0.32 -1.82 1.94 l-0.54 0 l0.72 -2.72 l0.44 0 c0.5 0.14 0.76 0.2 1.7 0.2 l4.78 0 c0.94 0 1.22 -0.06 1.7 -0.2 z  M139.11 21.46 c0 -1.6 -1.36 -2.3 -2.9 -3 c-1.9 -0.88 -3.5 -1.9 -3.5 -3.94 c0 -1.8 1.36 -3.26 3.68 -3.26 c1.5 0 2 0.46 2.46 0.46 c0.22 0 0.38 -0.04 0.46 -0.3 l0.52 0 l0.14 2.62 l-0.32 -0.02 c-0.22 -0.02 -0.32 -0.06 -0.42 -0.3 c-0.5 -1.06 -1.52 -1.88 -2.76 -1.88 c-1.36 0 -2.14 0.96 -2.14 2.06 c0 1.36 0.92 1.98 2.48 2.72 c1.64 0.76 4.14 1.68 4.14 4.16 c0 2.2 -2.04 3.48 -4 3.48 c-1.66 0 -2.46 -0.76 -3.04 -0.76 c-0.3 0 -0.5 0.2 -0.58 0.48 l-0.56 0 l-0.18 -2.8 l0.48 0 c0.18 0 0.26 0.08 0.36 0.3 c0.5 1.14 1.58 2.14 3.26 2.14 c1.5 0 2.42 -0.88 2.42 -2.16 z M155.29299999999998 22.24 c0.28 0.78 0.36 1.12 1.8 1.24 l0 0.52 c-1.56 -0.06 -3.26 -0.06 -4.84 0 l0 -0.52 c1.52 -0.12 1.38 -0.38 1.08 -1.18 l-0.92 -2.5 l-4.42 0 l-0.9 2.64 c-0.24 0.7 0.44 0.92 1.6 1.04 l0 0.52 c-1.3 -0.06 -2.92 -0.06 -4.18 0 l0 -0.52 c1.26 -0.12 1.7 -0.44 2.02 -1.36 l3.64 -10.64 l1.08 0 z M148.19299999999998 19.22 l4 0 l-2.08 -5.68 z M167.956 11.58 c1.42 0.06 2.88 0.06 4.3 0 l0 0.5 c-1.24 0.14 -1.8 0.24 -1.8 0.74 l0 11.18 l-0.54 0 l-6.98 -10.72 l0 9.46 c0 0.5 0.58 0.62 1.82 0.74 l0 0.52 c-1.44 -0.06 -2.88 -0.06 -4.3 0 l0 -0.52 c1.28 -0.12 1.8 -0.24 1.8 -0.74 l0 -9.8 c0 -0.54 -0.52 -0.74 -1.58 -0.86 l0 -0.5 c1.14 0.06 2.26 0.06 3.4 0 l5.7 8.82 l0 -7.58 c0 -0.5 -0.52 -0.6 -1.82 -0.74 l0 -0.5 z M180.379 11.58 c3.98 0 6.62 1.9 6.62 6.2 c0 4.22 -2.92 6.22 -5.64 6.22 c-1.06 0 -2.04 -0.3 -2.9 -0.3 c-0.9 0 -1.52 0.08 -2.54 0.3 l0 -0.54 c1 -0.24 1.4 -0.4 1.4 -0.92 l0 -9.34 c0 -0.62 -0.28 -1 -1.36 -1.12 l0 -0.5 c1.74 0.08 2.86 0 4.42 0 z M181.039 23.38 c2.92 0.06 3.92 -2.28 3.92 -5.58 c0 -3.14 -1.28 -5.7 -4.4 -5.64 c-0.36 0 -0.78 0 -1.36 0.04 l0 10.18 c0 0.8 0.8 0.98 1.84 1 z M197.682 21.46 c0 -1.6 -1.36 -2.3 -2.9 -3 c-1.9 -0.88 -3.5 -1.9 -3.5 -3.94 c0 -1.8 1.36 -3.26 3.68 -3.26 c1.5 0 2 0.46 2.46 0.46 c0.22 0 0.38 -0.04 0.46 -0.3 l0.52 0 l0.14 2.62 l-0.32 -0.02 c-0.22 -0.02 -0.32 -0.06 -0.42 -0.3 c-0.5 -1.06 -1.52 -1.88 -2.76 -1.88 c-1.36 0 -2.14 0.96 -2.14 2.06 c0 1.36 0.92 1.98 2.48 2.72 c1.64 0.76 4.14 1.68 4.14 4.16 c0 2.2 -2.04 3.48 -4 3.48 c-1.66 0 -2.46 -0.76 -3.04 -0.76 c-0.3 0 -0.5 0.2 -0.58 0.48 l-0.56 0 l-0.18 -2.8 l0.48 0 c0.18 0 0.26 0.08 0.36 0.3 c0.5 1.14 1.58 2.14 3.26 2.14 c1.5 0 2.42 -0.88 2.42 -2.16 z M212.52499999999998 11.38 l0.44 0 l-0.7 2.72 l-0.54 0 c0.12 -1.42 0 -1.94 -0.82 -1.94 l-1.82 0 l0 10.58 c0 0.5 0.38 0.64 1.42 0.74 l0 0.52 c-1.54 -0.06 -3.2 -0.06 -4.74 0 l0 -0.52 c1.04 -0.1 1.42 -0.24 1.42 -0.74 l0 -10.58 l-1.64 0 c-0.82 0 -1.02 0.32 -1.82 1.94 l-0.54 0 l0.72 -2.72 l0.44 0 c0.5 0.14 0.76 0.2 1.7 0.2 l4.78 0 c0.94 0 1.22 -0.06 1.7 -0.2 z M224.308 21.12 c1.08 1.5 2.28 2.48 3.04 2.52 l-0.34 0.52 c-1.64 0 -2.88 -0.72 -4.32 -2.56 l-2.04 -2.64 c-0.06 0 -0.12 0.02 -0.18 0.02 l-0.56 0.06 l0 3.72 c0 0.5 0.34 0.64 1.4 0.72 l0 0.52 c-1.56 -0.06 -3.12 -0.06 -4.68 0 l0 -0.52 c1.06 -0.08 1.4 -0.22 1.4 -0.72 l0 -9.56 c0 -0.58 -0.28 -1 -1.36 -1.12 l0 -0.5 c1.74 0.08 3.56 0 4.82 0 c4.04 0 4.96 1.7 4.96 3.4 c0 1.42 -1.02 2.9 -3.94 3.64 z M219.908 12.18 l0 6.26 l0.6 -0.08 c3.1 -0.42 3.98 -1.76 3.98 -3.46 c0 -1.46 -0.84 -2.72 -2.78 -2.72 l-1.8 0 z M236.751 11.26 c3.32 0 5.64 2.82 5.64 6.52 c0 3.66 -2.22 6.48 -5.54 6.48 s-5.64 -2.84 -5.64 -6.54 c0 -3.66 2.22 -6.46 5.54 -6.46 z M237.071 23.66 c1.64 0 3.28 -1.26 3.28 -5.3 c0 -3.8 -1.64 -6.52 -3.92 -6.52 c-1.54 0 -3.18 1.28 -3.18 5.32 c0 3.78 1.64 6.5 3.82 6.5 z M259.05400000000003 22.74 c0 0.5 0.38 0.64 1.42 0.74 l0 0.52 c-1.54 -0.06 -3.2 -0.06 -4.74 0 l0 -0.52 c1.04 -0.1 1.42 -0.24 1.42 -0.74 l0 -9.42 l-3.92 10.68 l-4.54 -10.72 l0 9.46 c0 0.5 0.58 0.62 1.84 0.74 l0 0.52 c-1.44 -0.06 -2.9 -0.06 -4.28 0 l0 -0.52 c1.24 -0.12 1.78 -0.24 1.78 -0.74 l0 -9.8 c0 -0.56 -0.54 -0.74 -1.58 -0.86 l0 -0.5 c1.16 0.06 2.32 0.06 3.48 0 l3.8 9.18 l3.38 -9.18 c1.06 0.06 2.24 0.06 3.32 0 l0 0.48 c-1 0.1 -1.38 0.24 -1.38 0.74 l0 9.94 z"></path>
    </g>
    <g id="SvgjsG1130" featurekey="text2" fill="#303030" transform="matrix(1.8680939674377441,0,0,1.8680939674377441,-0.934045189738624,6.965265342041469)">
        <path d="M12.36 12.08 c-1.04 0.12 -1.42 0.24 -1.42 0.74 l0 9.92 c0 0.5 0.38 0.64 1.42 0.74 l0 0.52 c-1.54 -0.06 -3.2 -0.06 -4.76 0 l0 -0.52 c1.06 -0.1 1.44 -0.24 1.44 -0.74 l0 -4.66 l-5.22 0 l0 4.66 c0 0.5 0.38 0.64 1.44 0.74 l0 0.52 c-1.56 -0.06 -3.2 -0.06 -4.76 0 l0 -0.52 c1.06 -0.1 1.44 -0.24 1.44 -0.74 l0 -9.92 c0 -0.5 -0.38 -0.62 -1.44 -0.74 l0 -0.5 c1.56 0.06 3.2 0.06 4.76 0 l0 0.5 c-1.06 0.12 -1.44 0.24 -1.44 0.74 l0 4.68 l5.22 0 l0 -4.68 c0 -0.5 -0.38 -0.62 -1.44 -0.74 l0 -0.5 c1.56 0.06 3.22 0.06 4.76 0 l0 0.5 z M21.963 11.26 c3.32 0 5.64 2.82 5.64 6.52 c0 3.66 -2.22 6.48 -5.54 6.48 s-5.64 -2.84 -5.64 -6.54 c0 -3.66 2.22 -6.46 5.54 -6.46 z M22.282999999999998 23.66 c1.64 0 3.28 -1.26 3.28 -5.3 c0 -3.8 -1.64 -6.52 -3.92 -6.52 c-1.54 0 -3.18 1.28 -3.18 5.32 c0 3.78 1.64 6.5 3.82 6.5 z M40.245999999999995 20.92 l0.58 0 c-0.34 1.1 -0.5 2.06 -0.58 3.08 c-3 -0.06 -5.7 -0.06 -8.64 0 l0 -0.58 c1.06 -0.12 1.4 -0.22 1.4 -0.72 l0 -9.88 c0 -0.5 -0.38 -0.62 -1.44 -0.74 l0 -0.5 c1.56 0.06 3.2 0.06 4.76 0 l0 0.5 c-1.06 0.12 -1.44 0.24 -1.44 0.74 l0 10.4 c0 0.1 0.08 0.16 0.18 0.16 l2.34 0 c1.18 0 1.8 -0.34 2.2 -1.18 z M49.049 11.58 c3.98 0 6.62 1.9 6.62 6.2 c0 4.22 -2.92 6.22 -5.64 6.22 c-1.06 0 -2.04 -0.3 -2.9 -0.3 c-0.9 0 -1.52 0.08 -2.54 0.3 l0 -0.54 c1 -0.24 1.4 -0.4 1.4 -0.92 l0 -9.34 c0 -0.62 -0.28 -1 -1.36 -1.12 l0 -0.5 c1.74 0.08 2.86 0 4.42 0 z M49.708999999999996 23.38 c2.92 0.06 3.92 -2.28 3.92 -5.58 c0 -3.14 -1.28 -5.7 -4.4 -5.64 c-0.36 0 -0.78 0 -1.36 0.04 l0 10.18 c0 0.8 0.8 0.98 1.84 1 z M63.152 22.74 c0 0.5 0.38 0.64 1.44 0.74 l0 0.52 c-1.56 -0.06 -3.2 -0.06 -4.76 0 l0 -0.52 c1.06 -0.1 1.44 -0.24 1.44 -0.74 l0 -9.92 c0 -0.5 -0.38 -0.62 -1.44 -0.74 l0 -0.5 c1.56 0.06 3.2 0.06 4.76 0 l0 0.5 c-1.06 0.12 -1.44 0.24 -1.44 0.74 l0 9.92 z M75.755 11.58 c1.42 0.06 2.88 0.06 4.3 0 l0 0.5 c-1.24 0.14 -1.8 0.24 -1.8 0.74 l0 11.18 l-0.54 0 l-6.98 -10.72 l0 9.46 c0 0.5 0.58 0.62 1.82 0.74 l0 0.52 c-1.44 -0.06 -2.88 -0.06 -4.3 0 l0 -0.52 c1.28 -0.12 1.8 -0.24 1.8 -0.74 l0 -9.8 c0 -0.54 -0.52 -0.74 -1.58 -0.86 l0 -0.5 c1.14 0.06 2.26 0.06 3.4 0 l5.7 8.82 l0 -7.58 c0 -0.5 -0.52 -0.6 -1.82 -0.74 l0 -0.5 z M90.818 18.12 c1.44 0.04 3.28 0.04 4.62 -0.02 l0 0.52 l-0.48 0.08 c-0.88 0.14 -0.78 1.02 -0.78 2.54 c0 0.6 0.02 1.22 0.06 1.76 l0.38 0.04 c0.1 0.02 0.14 0.08 0.14 0.16 l0 0.44 c-0.32 -0.06 -0.64 -0.06 -0.86 -0.06 c-1.5 0 -2.04 0.68 -4.2 0.68 c-3.4 0 -5.78 -2.84 -5.78 -6.54 c0 -3.68 2.28 -6.46 5.6 -6.46 c1.4 0 1.78 0.38 3 0.38 c0.2 0 0.32 0 0.6 -0.04 c0.22 1.14 0.5 2.18 1.04 3.4 l-0.92 0 c-0.82 -1.98 -1.96 -3.16 -4 -3.16 c-1.58 0 -3.28 1.28 -3.28 5.32 c0 3.78 1.7 6.5 3.88 6.5 c2.5 0 2.58 -0.88 2.58 -3.42 c0 -1.24 0.06 -1.46 -1.08 -1.56 l-0.52 -0.06 l0 -0.5 z M105.721 21.46 c0 -1.6 -1.36 -2.3 -2.9 -3 c-1.9 -0.88 -3.5 -1.9 -3.5 -3.94 c0 -1.8 1.36 -3.26 3.68 -3.26 c1.5 0 2 0.46 2.46 0.46 c0.22 0 0.38 -0.04 0.46 -0.3 l0.52 0 l0.14 2.62 l-0.32 -0.02 c-0.22 -0.02 -0.32 -0.06 -0.42 -0.3 c-0.5 -1.06 -1.52 -1.88 -2.76 -1.88 c-1.36 0 -2.14 0.96 -2.14 2.06 c0 1.36 0.92 1.98 2.48 2.72 c1.64 0.76 4.14 1.68 4.14 4.16 c0 2.2 -2.04 3.48 -4 3.48 c-1.66 0 -2.46 -0.76 -3.04 -0.76 c-0.3 0 -0.5 0.2 -0.58 0.48 l-0.56 0 l-0.18 -2.8 l0.48 0 c0.18 0 0.26 0.08 0.36 0.3 c0.5 1.14 1.58 2.14 3.26 2.14 c1.5 0 2.42 -0.88 2.42 -2.16 z"></path>
    </g>
</svg>